<svg width="300" height="300" viewBox="0 0 350 420" class="css-1j8o68f"><defs id="SvgjsDefs7563"></defs><g id="SvgjsG7564" featurekey="symbolContainer" transform="matrix(1,0,0,1,55,20)" fill="#d4314e"><path xmlns="http://www.w3.org/2000/svg" fill-rule="evenodd" d=" M0,0 H240 V287 H0,0 z M2,2 H238 V285 H2,2 z M6,6 H234 V281 H6 z M8,8 H232 V279 H6,8 z "></path></g><g id="SvgjsG7565" featurekey="monogramFeature-0" transform="matrix(4.159239943579646,0,0,4.159239943579646,92.52228016926107,7.611400846305315)" fill="#d4314e"><path d="M17.04 15.420000000000002 l2.4 -0.24 l3.12 -0.18 l2.58 0 l2.16 0.12 l1.86 0.24 c6.18 0.72 7.44 6.66 7.44 11.82 c0 0.6 0 2.04 -0.9 2.04 l-6.18 0 c-0.78 0 -0.84 -1.08 -0.9 -1.62 c-0.06 -0.24 -0.12 -1.38 -0.18 -1.68 c-0.18 -1.2 -0.6 -1.62 -1.86 -1.92 c-0.78 -0.18 -1.56 -0.18 -2.34 -0.18 l-1.5 0 l-1.44 0 c-1.14 0 -4.62 0.36 -4.62 1.62 c0.24 -0.12 0.96 -0.36 1.2 -0.36 l0.06 0 l-1.56 1.2 c-0.06 0.06 -0.18 0.96 -0.18 1.02 l3.3 -2.46 l0.78 0 l0.18 0 l-4.38 3.24 l-0.06 1.02 l0 8.82 c0.24 -0.54 0.6 -0.78 1.2 -0.78 l-1.2 0.9 l0 0.96 l2.46 -1.86 l0.96 0 l-3.42 2.58 l0 0.3 s0 0.42 0.06 0.6 l3.9 -2.94 l0 0.72 l-3.9 2.94 l0 0.12 c0 0.24 0 0.54 0.06 0.72 l3.84 -2.82 l0 0.66 l-3.78 2.88 l0 0.12 l0.06 0.72 c0.06 0 0.06 -0.06 0.06 -0.06 l3.72 -2.76 c0.06 0.18 0.12 0.36 0.24 0.54 l-3.9 2.94 s0.06 0.12 0.06 0.24 c0.06 0.12 0.12 0.3 0.24 0.48 l4.2 -3.18 l0.96 0 l-4.44 3.3 l-0.48 0 l-0.18 0 c0 0.12 0.18 0.36 0.24 0.42 c0.66 0.9 1.86 1.02 2.82 1.08 c0.3 0.06 1.5 0.06 1.68 0.12 l0.12 0 c0.48 0 1.68 -0.06 1.98 -0.06 l0 -0.24 l4.02 -3.06 l0 0.12 c0 0.12 0.06 0.6 -0.06 0.66 l-3.36 2.58 c0.18 -0.06 1.26 -0.06 1.32 -0.12 l1.86 -1.38 c0 0.24 -0.06 0.54 -0.18 0.84 c-0.06 0.06 -0.3 0.24 -0.36 0.3 c1.62 0 1.74 -3.42 1.8 -4.74 l0 -0.84 l-6.72 0 c-0.54 0 -0.9 -0.84 -0.9 -1.26 l0 -5.58 c0 -0.54 0.42 -1.26 1.08 -1.26 l2.22 0 l3.72 -2.82 c0.24 0.18 0.42 0.24 0.66 0.24 l-3.42 2.58 l1.26 0 l3.42 -2.58 l0.96 0 l-3.42 2.58 l1.26 0 l2.76 -2.1 l0.06 0 l0 0.66 l-1.92 1.44 l1.2 0 c0.18 -0.12 0.6 -0.42 0.66 -0.48 c0 0.18 -0.06 0.36 -0.06 0.48 l4.14 0 c0.54 0 1.08 0.6 1.08 1.14 l0 8.46 l-0.18 3.12 c-0.42 8.82 -6.36 10.14 -13.92 10.14 c-5.88 0 -11.52 -0.6 -13.5 -7.26 c-0.54 -1.62 -0.84 -3.42 -0.9 -5.16 l-0.12 -2.58 l0 -10.86 l0.06 -2.22 l0.24 -2.1 l0.3 -1.62 c0.78 -4.38 3.9 -7.98 8.4 -8.46 z M5.16 24.119999999999997 l3.78 -2.82 c-0.18 0.3 -0.36 0.66 -0.48 1.02 l-3.9 2.94 c0.06 -0.18 0.48 -1.08 0.6 -1.14 z M4.08 26.58 l3.84 -2.94 l0.06 0 l-0.24 0.84 l-3.96 3 l0.24 -0.9 l0.06 0 z M18.24 28.14 l-0.9 0 l4.38 -3.3 l0.96 0 z M19.56 28.14 l-0.06 0 l4.44 -3.3 c0.3 0 0.6 0 0.84 0.06 l-4.38 3.24 l-0.12 0 l-0.18 0 l-0.54 0 z M21.48 28.32 l4.26 -3.24 l0.06 0 s0.18 0 0.18 0.06 c0.06 0 0.48 0.06 0.48 0.18 l-4.26 3.18 c-0.06 0 -0.18 0 -0.18 -0.06 c-0.06 0 -0.42 -0.06 -0.48 -0.12 l-0.06 0 z M3.36 29.4 l0 -0.06 l0.12 -0.66 l0.12 -0.12 l3.84 -2.88 l0.06 -0.06 l-0.12 0.72 c0 0.06 0 0.12 -0.06 0.12 z M22.92 28.92 l0 -0.06 l4.14 -3.06 l0.06 0 c0.06 0.06 0.3 0.48 0.24 0.48 l-4.14 3.12 c-0.06 -0.12 -0.06 -0.18 -0.12 -0.24 s-0.24 -0.18 -0.18 -0.24 z M23.4 30.18 l4.14 -3.06 c0 0.06 0.06 0.54 0.06 0.66 l-0.06 0 l-4.02 3.06 c-0.06 -0.18 -0.12 -0.54 -0.12 -0.66 z M3.24 30.48 l4.02 -3 c0 0.18 0 0.72 -0.06 0.78 l-3.96 2.94 l-0.06 0.06 c0 -0.12 0 -0.72 0.06 -0.78 z M23.58 31.74 l4.02 -3.06 l0.06 0 l0.12 0.6 l-4.14 3.12 l0 -0.06 s-0.06 -0.36 -0.06 -0.6 z M3.12 32.22 l4.02 -3 c0 0.12 -0.06 0.66 -0.06 0.66 l-4.02 3.06 l0 -0.18 c0 -0.12 -0.06 -0.42 0.06 -0.54 z M7.08 31.56 l-4.08 3.06 l0 -0.66 c0 -0.06 0 -0.06 0.06 -0.12 l4.02 -3 l0 0.72 z M3 36.239999999999995 l0 -0.72 l4.08 -3 l0 0.72 z M3 37.2 l4.08 -3.06 l0 0.72 l-4.08 3.06 l0 -0.72 z M3 38.82 l4.08 -3 l0 0.72 l-4.08 3.06 l0 -0.78 z M3 41.22 l0 -0.72 l4.08 -3 l0 0.66 z M3 42.18 l4.08 -3.06 l0 0.72 l-4.08 3.06 l0 -0.72 z M3 43.8 l4.08 -3 l0 0.72 l-4.08 3 l0 -0.72 z M19.62 45.24 l-0.96 0 l4.44 -3.3 l0.96 0 z M20.88 45.24 l4.44 -3.3 l0.9 0 l-4.38 3.3 l-0.96 0 z M23.58 45.24 l-0.48 0 l4.44 -3.3 l0.12 0 l0 0.6 l-4.08 3.06 l0 -0.36 z M3 45.480000000000004 l4.08 -3.06 l0 0.06 l0 0.42 l0 0.18 l-4.02 3.06 c-0.06 -0.18 -0.06 -0.36 -0.06 -0.54 l0 -0.12 z M3.06 47.04 l4.08 -3.06 c0.06 0.24 0.06 0.42 0.06 0.72 l-4.08 3.06 l0 -0.12 s0 -0.3 -0.06 -0.6 z M3.24 48.6 l4.08 -3 s0.06 0.36 0.06 0.6 l-4.08 3.06 c-0.06 -0.18 -0.06 -0.42 -0.06 -0.66 z M26.82 46.56 l0 -0.06 c-0.06 0 -0.06 0.06 0 0.06 z M3.42 50.1 l4.08 -3.06 c0.06 0.24 0.12 0.66 0.12 0.66 l-4.08 3.06 z M3.66 51.6 l0 -0.06 l4.14 -3.06 l0 0.06 l0.12 0.48 l-4.08 3.12 c-0.06 -0.24 -0.18 -0.54 -0.18 -0.54 z M4.02 52.92 l4.14 -3.12 c0.12 0.18 0.24 0.54 0.24 0.54 l-4.14 3.12 l-0.06 0 z M4.56 54.18 l4.08 -3.06 l0.06 -0.06 l0 0.06 l0.24 0.48 l-4.14 3.12 c-0.06 -0.06 -0.18 -0.3 -0.18 -0.36 c-0.06 -0.06 -0.12 -0.18 -0.06 -0.18 z M5.16 55.38 l4.14 -3.12 c0.06 0.06 0.3 0.36 0.36 0.48 l-4.2 3.12 c-0.06 -0.06 -0.24 -0.36 -0.3 -0.48 z M5.88 56.46 l4.2 -3.12 l0.42 0.42 l-4.2 3.12 l-0.18 -0.18 z M6.84 57.42 l4.26 -3.18 c0.12 0.12 0.42 0.36 0.42 0.36 l-4.2 3.18 c-0.06 0 -0.12 -0.06 -0.12 -0.06 c-0.12 -0.12 -0.36 -0.3 -0.36 -0.3 z M7.98 58.2 l4.26 -3.18 l0.54 0.3 l-4.26 3.24 c-0.24 -0.12 -0.54 -0.3 -0.54 -0.3 l0 -0.06 z M23.82 59.52 l4.62 -3.48 c0.06 0 0.3 -0.06 0.36 -0.06 l1.08 -0.36 c0 0.06 -0.06 0.12 -0.12 0.12 l-4.44 3.36 c-0.06 0.06 -1.38 0.42 -1.44 0.42 l-0.06 0 z M9.3 58.92 l4.32 -3.24 l0.6 0.18 l0.06 0 c0 0.06 0 0.06 -0.06 0.06 l-4.26 3.18 c-0.24 -0.06 -0.48 -0.12 -0.66 -0.18 z M10.86 59.4 l0 -0.06 l4.32 -3.18 l0.06 -0.06 l0.72 0.18 l-4.32 3.24 c-0.18 0 -0.72 -0.12 -0.78 -0.12 z M21.12 59.88 l4.44 -3.36 l1.2 -0.12 l-4.5 3.36 c-0.06 0.06 -0.9 0.12 -0.96 0.12 l-0.18 0 z M12.66 59.64 l4.38 -3.24 l0.78 0.12 l-4.38 3.3 l-0.78 -0.12 l0 -0.06 z M14.58 59.88 l4.38 -3.24 c0 -0.06 0 -0.06 0.06 -0.06 c0.24 0 0.54 0.06 0.84 0.06 l-4.38 3.3 c-0.24 0 -0.78 -0.06 -0.9 -0.06 z M18.9 59.94 l4.44 -3.3 l0.66 0 l0.18 0 l-4.38 3.3 l-0.24 0 c0 0 -0.48 0.06 -0.66 0 z M17.64 60 l-0.96 0 l4.38 -3.3 l0.96 0 z"></path></g><g id="SvgjsG7566" featurekey="nameFeature-0" transform="matrix(1.9315247463555918,0,0,1.9315247463555918,-3.090439870475778,303.82170488577844)" fill="#d4314e"><path d="M5.32 40 l-3.72 -3.72 l0 -20.56 l3.72 -3.72 l8.8 0 l3.72 3.72 l0 5.24 l-5.04 0 l0 -3.16 l-0.76 -0.76 l-4.64 0 l-0.76 0.76 l0 16.4 l0.76 0.76 l4.64 0 l0.76 -0.76 l0 -5.68 l-2.52 0 l0 -5.04 l7.56 0 l0 12.8 l-3.72 3.72 l-8.8 0 z M30.492 40 l0 -10.4 l-6.36 -17.6 l5.36 0 l3.48 9.72 l3.52 -9.72 l5.36 0 l-6.32 17.52 l0 10.48 l-5.04 0 z M48.144 40 l0 -28 l5.36 0 l4.16 10.6 l4.16 -10.6 l5.36 0 l0 28 l-5.04 0 l0 -15 l-2.48 6.32 l-4 0 l-2.48 -6.32 l0 15 l-5.04 0 z M79.596 40 l0 -22.96 l-5.32 0 l0 -5.04 l15.68 0 l0 5.04 l-5.32 0 l0 22.96 l-5.04 0 z M97.048 40 l0 -28 l11.96 0 l3.72 3.72 l0 10.2 l-2.16 2.2 l3.08 11.88 l-5.2 0 l-2.72 -10.36 l-3.64 0 l0 10.36 l-5.04 0 z M102.08800000000001 24.6 l4.84 0 l0.76 -0.76 l0 -6.04 l-0.76 -0.76 l-4.84 0 l0 7.56 z M119.54 40 l5.64 -28 l6.96 0 l5.64 28 l-5.12 0 l-1.24 -6.16 l-5.48 0 l-1.24 6.16 l-5.16 0 z M126.94000000000001 28.8 l3.44 0 l-1.72 -8.56 z M147.792 40 l-3.72 -3.72 l0 -20.56 l3.72 -3.72 l8.8 0 l3.72 3.72 l0 5.24 l-5.04 0 l0 -3.16 l-0.76 -0.76 l-4.64 0 l-0.76 0.76 l0 16.4 l0.76 0.76 l4.64 0 l0.76 -0.76 l0 -3.16 l5.04 0 l0 5.24 l-3.72 3.72 l-8.8 0 z M167.404 40 l0 -28 l5.04 0 l0 12.88 l5.32 -6.76 l0 -6.12 l5.04 0 l0 7.88 l-3.64 4.64 l3.64 4.52 l0 10.96 l-5.04 0 l0 -9.2 l-1.8 -2.2 l-3.52 4.44 l0 6.96 l-5.04 0 z"></path></g></svg>


